<?xml version="1.0" encoding="UTF-8"?>
<svg version="1.1" xmlns="http://www.w3.org/2000/svg" width="2000" height="2000">
<path d="M0 0 C660 0 1320 0 2000 0 C2000 660 2000 1320 2000 2000 C1340 2000 680 2000 0 2000 C0 1340 0 680 0 0 Z " fill="#FFFFFF" transform="translate(0,0)"/>
<path d="M0 0 C1.1029541 0.5364917 2.2059082 1.0729834 3.34228516 1.62573242 C13.61490536 6.68714565 23.53799173 12.28389693 33.45019531 18.00976562 C37.85668844 20.52413346 42.30787533 22.9549605 46.75634766 25.39404297 C58.16782566 31.66038777 69.3053234 38.19198501 80.22314453 45.28076172 C83.45273251 47.36479137 86.70937602 49.40486703 89.96508789 51.44775391 C100.38400204 57.98902538 110.65481593 64.7011936 120.70703125 71.796875 C122.79947566 73.26012284 124.89947877 74.70649253 127.01171875 76.140625 C141.10698405 85.72232838 154.80877317 95.82163349 168.2734375 106.26953125 C171.24939075 108.57047831 174.2657593 110.81440455 177.28588867 113.05688477 C184.49213225 118.41056555 191.52573589 123.93327426 198.44848633 129.6496582 C199.08165771 130.17132568 199.7148291 130.69299316 200.3671875 131.23046875 C200.92519043 131.69348389 201.48319336 132.15649902 202.05810547 132.63354492 C203.52282368 133.84223918 203.52282368 133.84223918 205.5 134.75 C205.5 135.41 205.5 136.07 205.5 136.75 C206.34884766 137.11931641 206.34884766 137.11931641 207.21484375 137.49609375 C209.89248258 138.96536224 211.83043612 140.72752435 214.0625 142.8125 C217.58042208 146.04198338 221.15182375 149.13460518 224.875 152.125 C230.01406992 156.28277651 234.86826684 160.68648792 239.7109375 165.1796875 C242.0450955 167.33077429 244.40746617 169.42925658 246.8125 171.5 C250.0229187 174.2756745 253.01313442 177.21375236 255.95703125 180.26953125 C257.63707372 181.96835505 257.63707372 181.96835505 260.5 183.75 C260.5 184.41 260.5 185.07 260.5 185.75 C261.38223236 186.14523865 261.38223236 186.14523865 262.2822876 186.54846191 C264.59667131 187.80237571 266.12428115 189.12061576 267.98339844 190.97460938 C268.64378113 191.62868774 269.30416382 192.28276611 269.98455811 192.95666504 C270.68574768 193.66190308 271.38693726 194.36714111 272.109375 195.09375 C272.83618469 195.81864624 273.56299438 196.54354248 274.31182861 197.29040527 C275.84397279 198.82119011 277.37360075 200.35449697 278.90087891 201.89013672 C281.24811631 204.2481077 283.60585778 206.59519546 285.96484375 208.94140625 C287.45116282 210.42904636 288.93686169 211.91730644 290.421875 213.40625 C291.1311615 214.11148804 291.840448 214.81672607 292.57122803 215.54333496 C293.21900208 216.19741333 293.86677612 216.8514917 294.53417969 217.52539062 C295.10835632 218.10115845 295.68253296 218.67692627 296.27410889 219.2701416 C297.5 220.75 297.5 220.75 297.5 222.75 C298.16 222.75 298.82 222.75 299.5 222.75 C300.98046875 224.25390625 300.98046875 224.25390625 302.6875 226.3125 C304.98728702 229.02482613 307.31054465 231.59966643 309.875 234.0625 C312.68568101 236.82343444 315.1617178 239.73789229 317.625 242.8125 C321.24058984 247.31039248 325.04310993 251.55055949 329 255.75 C334.44568344 261.54169076 339.55972654 267.51765502 344.5 273.75 C345.1290625 274.53375 345.758125 275.3175 346.40625 276.125 C347.70521225 277.74337919 349.00064679 279.36459468 350.29296875 280.98828125 C351.91194213 283.01414705 353.53933869 285.03132772 355.17578125 287.04296875 C365.83577102 300.19016974 375.93260014 313.78676777 385.5 327.75 C386.44908878 329.12248572 387.39832254 330.49487118 388.34765625 331.8671875 C398.9090843 347.17313895 409.26938348 362.56958429 418.47045898 378.73950195 C421.14757782 383.44167729 423.9103154 388.07236099 426.77197266 392.66455078 C431.7329911 400.63058764 436.13973543 408.68153108 440.21679688 417.12792969 C441.79957879 420.362153 443.42195142 423.57588906 445.046875 426.7890625 C461.86843504 460.08574252 461.86843504 460.08574252 468.19921875 477.46484375 C469.33831517 480.34166084 470.58107287 483.11653503 471.8828125 485.921875 C474.4561109 491.53897177 476.62591792 497.24080565 478.6875 503.0625 C479.06769287 504.13008545 479.44788574 505.1976709 479.83959961 506.29760742 C502.10157241 569.21384848 516.94101898 633.06079401 521.5 699.75 C521.58440551 700.94502921 521.66881101 702.14005842 521.75577426 703.37130064 C522.73145475 718.50301722 522.64772802 733.64680222 522.64087028 748.80238541 C522.64013086 752.87988676 522.64518126 756.95738195 522.6494453 761.03488058 C522.65697785 769.09900331 522.65921591 777.16311942 522.65977435 785.2272453 C522.66069259 794.89443949 522.66737324 804.56162765 522.67412117 814.22881922 C522.69012836 837.57257143 522.69607639 860.91632295 522.70086992 884.26007966 C522.70320904 895.30143006 522.70681181 906.34277994 522.7105653 917.38412993 C522.72339 955.18312134 522.73411493 992.98211246 522.7375679 1030.781106 C522.73778953 1033.15041197 522.73801132 1035.51971795 522.73823325 1037.88902393 C522.73845389 1040.26395714 522.73867437 1042.63889035 522.7388947 1045.01382357 C522.73933725 1049.7781773 522.73978437 1054.54253103 522.74023438 1059.30688477 C522.74034377 1060.48815351 522.74045316 1061.66942225 522.74056586 1062.88648701 C522.74420278 1101.2559749 522.76015223 1139.62544397 522.78342474 1177.99492465 C522.80799057 1218.57074846 522.82173901 1259.14656151 522.82293582 1299.72239298 C522.82310728 1304.17078332 522.82332271 1308.61917367 522.82357025 1313.06756401 C522.82362602 1314.16286714 522.82368179 1315.25817027 522.82373925 1316.3866644 C522.82489183 1334.04369478 522.83593024 1351.70070587 522.85045731 1369.35772972 C522.86478377 1387.07601412 522.86808096 1404.79427363 522.86001733 1422.51256222 C522.85554456 1433.05019524 522.85948738 1443.58774824 522.87525584 1454.12537082 C522.88495043 1461.15133912 522.88388095 1468.17725088 522.87381961 1475.20321856 C522.86838777 1479.21420114 522.86784384 1483.22502923 522.88032833 1487.23599947 C522.89156962 1490.87763771 522.88925225 1494.51899406 522.87566125 1498.16062198 C522.87203913 1500.10194132 522.88327991 1502.04327057 522.89495254 1503.98455819 C522.88795443 1505.12231776 522.88095633 1506.26007733 522.87374616 1507.43231446 C522.87399036 1508.41854037 522.87423456 1509.40476627 522.87448616 1510.42087782 C522.75090573 1511.18948814 522.6273253 1511.95809846 522.5 1512.75 C519.04414453 1515.05390365 517.75402627 1514.9984277 513.68334961 1514.99291992 C512.48878647 1514.99599655 511.29422333 1514.99907318 510.0634613 1515.00224304 C508.77279251 1514.99505753 507.48212372 1514.98787201 506.15234375 1514.98046875 C504.81620834 1514.97927648 503.48007208 1514.97882389 502.14393616 1514.9790802 C499.34549707 1514.97751674 496.54718615 1514.96923694 493.7487793 1514.95581055 C490.15845516 1514.93880445 486.56827165 1514.93499676 482.97791195 1514.93575573 C480.21988071 1514.93548408 477.46188032 1514.93000398 474.70385933 1514.92275429 C472.73510743 1514.9180175 470.76634903 1514.91629138 468.79759216 1514.91459656 C467.60618118 1514.90821671 466.4147702 1514.90183685 465.18725586 1514.89526367 C464.13485214 1514.89145187 463.08244843 1514.88764008 461.99815369 1514.88371277 C459.5 1514.75 459.5 1514.75 457.5 1513.75 C457.49944384 1513.07605013 457.49888767 1512.40210027 457.49831466 1511.70772768 C457.43766415 1438.2973237 457.37455449 1364.88692199 457.29867554 1291.47653198 C457.2969751 1289.83040868 457.2969751 1289.83040868 457.29524031 1288.15103036 C457.2705861 1264.29846825 457.2454931 1240.44590663 457.21994839 1216.59334547 C457.20742306 1204.89523821 457.19499465 1193.19713085 457.18261719 1181.49902344 C457.18138386 1180.33495103 457.18015054 1179.17087862 457.17887984 1177.97153129 C457.13898434 1140.27335617 457.1054824 1102.57517869 457.07531309 1064.87699463 C457.04426384 1026.12161959 457.00673027 987.36625607 456.96109388 948.61089534 C456.95464394 943.13091552 456.94826775 937.65093562 456.94193649 932.17095566 C456.94068819 931.09246813 456.93943988 930.0139806 456.93815375 928.90281164 C456.91828789 911.57585912 456.90521221 894.24890789 456.89470672 876.92194746 C456.88398676 859.48209662 456.86603956 842.04226488 456.84083296 824.60242887 C456.82609287 814.25437174 456.81677625 803.90634381 456.81543317 793.55827609 C456.81398516 786.62735427 456.80525208 779.69646519 456.79084408 772.76555828 C456.78286038 768.82824704 456.77780678 764.89099993 456.78172119 760.95368101 C456.8048464 733.99908791 454.91342301 707.48913342 451.5 680.75 C451.35836426 679.62867676 451.21672852 678.50735352 451.07080078 677.35205078 C444.983997 629.94223875 433.19880358 582.26915268 414.49951172 538.16455078 C413.39215948 535.4894864 412.3509307 532.7938891 411.31640625 530.08984375 C404.66824324 512.81768279 396.72481208 496.30883529 388.5 479.75 C387.68033739 478.08495632 386.86121975 476.41964409 386.04296875 474.75390625 C379.1946922 460.86586105 371.81925779 447.34889144 363.87695312 434.05810547 C362.42682134 431.62733492 360.98660876 429.19084805 359.546875 426.75390625 C353.82830198 417.10795417 347.92208549 407.64983635 341.60546875 398.38476562 C339.95503387 395.94410485 338.35903256 393.46809232 336.75 391 C331.5637313 383.22059695 325.93642323 375.76144469 320.35986328 368.25976562 C318.52122637 365.77864361 316.69415384 363.28945946 314.87109375 360.796875 C301.97458107 343.17164101 288.49734107 326.30213557 273.734375 310.19921875 C271.20350994 307.42500128 268.73360609 304.60292879 266.26953125 301.76953125 C263.57709948 298.69671177 260.83866872 295.66582209 258.1015625 292.6328125 C256.59930042 290.96814371 255.10096693 289.29987464 253.61351013 287.6219635 C248.23023705 281.57701443 242.66351981 275.766653 236.93359375 270.05078125 C236.05526382 269.1714946 235.1769339 268.29220795 234.27198792 267.38627625 C232.43035555 265.54396862 230.58748084 263.70290212 228.7434082 261.86303711 C225.93781215 259.06281155 223.13761344 256.25726828 220.33789062 253.45117188 C218.53677896 251.65072086 216.73535721 249.85057999 214.93359375 248.05078125 C214.10629257 247.22145584 213.27899139 246.39213043 212.42662048 245.53767395 C207.60976107 240.74000509 202.67435504 236.15893893 197.5 231.75 C196.27425771 230.69196425 195.04893318 229.63344412 193.82421875 228.57421875 C192.93234863 227.80513184 192.93234863 227.80513184 192.02246094 227.02050781 C186.87095862 222.57634322 181.75797246 218.10561026 176.75 213.5 C172.3936197 209.51040504 167.90477708 205.73688746 163.30859375 202.02734375 C160.38439281 199.65626009 157.50433633 197.23780169 154.625 194.8125 C149.54794082 190.5751083 144.35820437 186.50952472 139.09765625 182.50390625 C136.48440549 180.51191612 133.89225016 178.49506888 131.30859375 176.46484375 C121.59215833 168.83485125 111.73640466 161.45240704 101.66748047 154.29394531 C99.60710972 152.82629667 97.55475373 151.34810137 95.50390625 149.8671875 C76.72563781 136.37743619 57.15778164 123.91325239 37.5 111.75 C36.7471875 111.28352051 35.994375 110.81704102 35.21875 110.33642578 C9.19543511 91.86615767 9.19543511 91.86615767 -19.5 82.75 C-22.16997474 83.74117173 -22.16997474 83.74117173 -24.73828125 85.2421875 C-25.71434326 85.77714844 -26.69040527 86.31210937 -27.69604492 86.86328125 C-28.7244751 87.44464844 -29.75290527 88.02601563 -30.8125 88.625 C-32.41992065 89.51638672 -32.41992065 89.51638672 -34.05981445 90.42578125 C-37.21612383 92.18414454 -40.36040638 93.96198957 -43.5 95.75 C-44.3053418 96.20793945 -45.11068359 96.66587891 -45.94042969 97.13769531 C-50.83661507 99.93833971 -55.67873964 102.82253675 -60.5 105.75 C-61.29937988 106.23404297 -62.09875977 106.71808594 -62.92236328 107.21679688 C-75.50087792 114.85590245 -87.80785829 122.85137938 -100.00830078 131.07861328 C-102.38043911 132.66980072 -104.76331494 134.24291119 -107.15234375 135.80859375 C-117.3874284 142.52800453 -127.27898466 149.62767811 -137.08691406 156.95458984 C-139.52600485 158.76934841 -141.97574211 160.56866994 -144.4296875 162.36328125 C-153.358033 168.89467794 -162.17383885 175.53058694 -170.82617188 182.42333984 C-172.54837327 183.78834019 -174.28034824 185.13995016 -176.015625 186.48828125 C-182.39946386 191.45397709 -188.674523 196.51492418 -194.82104492 201.7722168 C-198.12560076 204.59815752 -201.47773164 207.34769619 -204.875 210.0625 C-210.85725385 214.92362868 -216.41823685 220.20809899 -222.02734375 225.48828125 C-224.74178963 228.04326898 -227.46957851 230.57906644 -230.25 233.0625 C-230.82234375 233.57425781 -231.3946875 234.08601562 -231.984375 234.61328125 C-233.5 235.75 -233.5 235.75 -236.5 236.75 C-236.5 237.41 -236.5 238.07 -236.5 238.75 C-237.90818787 240.13941956 -237.90818787 240.13941956 -239.89233398 241.77563477 C-244.92068374 246.05488033 -249.56130407 250.66746151 -254.22265625 255.33984375 C-255.12696884 256.24319962 -256.03128143 257.14655548 -256.96299744 258.07728577 C-258.86434943 259.97796068 -260.76467553 261.87959608 -262.66333008 263.78295898 C-265.07585861 266.20118392 -267.49285081 268.61488958 -269.91121769 271.02727413 C-272.24664575 273.35818401 -274.57822177 275.69293956 -276.91015625 278.02734375 C-277.76762955 278.88279282 -278.62510284 279.73824188 -279.50856018 280.61961365 C-287.78636903 288.86575186 -287.78636903 288.86575186 -295.06800842 297.97764587 C-295.54056564 298.56252274 -296.01312286 299.1473996 -296.5 299.75 C-297.16 299.75 -297.82 299.75 -298.5 299.75 C-298.73589844 300.30558594 -298.97179687 300.86117188 -299.21484375 301.43359375 C-300.8127752 304.31375591 -302.805005 306.41369076 -305.0625 308.8125 C-309.26968723 313.34255732 -313.22625178 318.01528023 -317.10546875 322.83203125 C-318.78954749 324.88424465 -320.48641494 326.89477059 -322.23828125 328.88671875 C-329.97773845 337.69597328 -336.93150707 346.9507539 -343.8125 356.44091797 C-345.85682285 359.23825673 -347.94364038 362.00122298 -350.03857422 364.76074219 C-367.35975892 387.59715877 -382.72613927 411.61493883 -397.12353516 436.38330078 C-398.29869965 438.40388337 -399.48156744 440.41960241 -400.66796875 442.43359375 C-409.65146669 457.86298299 -417.74668128 473.85909424 -425.59082031 489.89453125 C-426.47755773 491.70419945 -427.37536008 493.50843259 -428.2734375 495.3125 C-433.15953494 505.29230833 -437.39217055 515.54374762 -441.625 525.8125 C-441.92077942 526.52871521 -442.21655884 527.24493042 -442.52130127 527.98284912 C-448.25541754 541.89378097 -453.68567456 555.9068351 -458.4375 570.1875 C-458.77177002 571.19192139 -459.10604004 572.19634277 -459.45043945 573.23120117 C-462.88537202 583.70145961 -465.86475648 594.28591234 -468.73144531 604.92382812 C-469.41285096 607.42953072 -470.1181403 609.92641666 -470.8359375 612.421875 C-476.45553578 632.29219249 -479.6842785 652.87844703 -482.87573242 673.26165771 C-483.16681586 675.11808393 -483.4649742 676.97339697 -483.76367188 678.82861328 C-484.41462792 683.12843878 -484.96656586 687.43421108 -485.5 691.75 C-485.62136377 692.71719388 -485.74272754 693.68438777 -485.867769 694.68089056 C-488.92420754 719.99826233 -488.98148511 745.24585368 -489.01020366 770.71551597 C-489.02038952 776.98431222 -489.04724388 783.25304322 -489.07166672 789.52179718 C-489.11415005 801.09572916 -489.14308459 812.66963749 -489.16494851 824.24362434 C-489.18544571 835.06381859 -489.21251694 845.88397514 -489.24509048 856.70413971 C-489.25391572 859.65288166 -489.26272388 862.60162366 -489.27152216 865.55036569 C-489.27480877 866.65138873 -489.27480877 866.65138873 -489.27816178 867.77465465 C-489.49986727 942.40651633 -489.54518967 1017.03862879 -489.4921875 1126.546875 C-489.49128336 1127.99690604 -489.49037932 1129.44693708 -489.48947537 1130.89696813 C-489.45757959 1181.79368468 -489.41815274 1232.69041222 -489.35229492 1283.58709717 C-489.35132365 1284.33850057 -489.35035238 1285.08990396 -489.34935168 1285.86407716 C-489.3444322 1289.66547954 -489.33949324 1293.46688189 -489.33454908 1297.26828423 C-489.33356969 1298.02152443 -489.33259029 1298.77476462 -489.33158121 1299.55083028 C-489.3296034 1301.07133426 -489.32762347 1302.59183823 -489.32564141 1304.1123422 C-489.29302475 1329.18095799 -489.27041033 1354.24956642 -489.25934704 1379.3182013 C-489.25778419 1382.83287451 -489.25609012 1386.34754765 -489.25430679 1389.86222076 C-489.25395802 1390.55262312 -489.25360925 1391.24302548 -489.25324992 1391.95434913 C-489.24736265 1402.96181758 -489.2306843 1413.96924329 -489.2094651 1424.97669179 C-489.18864357 1435.86677498 -489.17848306 1446.75683069 -489.17900907 1457.6469349 C-489.17894583 1463.51827172 -489.17388226 1469.38949751 -489.15584183 1475.26080894 C-489.13947631 1480.61550603 -489.13667586 1485.970025 -489.14509059 1491.32473889 C-489.14566811 1493.26579195 -489.14108775 1495.20685427 -489.13102923 1497.14788136 C-489.11816838 1499.76727887 -489.12346977 1502.38600408 -489.13364983 1505.0053978 C-489.12548294 1505.77074178 -489.11731605 1506.53608575 -489.10890168 1507.32462198 C-489.12855518 1509.42393851 -489.12855518 1509.42393851 -489.5 1512.75 C-493.01553574 1515.09369049 -494.43379014 1514.9982752 -498.59204102 1514.99291992 C-500.47397911 1514.99753487 -500.47397911 1514.99753487 -502.39393616 1515.00224304 C-503.76392805 1514.9953456 -505.13391813 1514.98807866 -506.50390625 1514.98046875 C-507.90730243 1514.97927655 -509.31069941 1514.97882387 -510.71409607 1514.9790802 C-513.65376793 1514.97751652 -516.5933178 1514.96923508 -519.53295898 1514.95581055 C-523.30488391 1514.93880522 -527.07667499 1514.93499673 -530.84863377 1514.93575573 C-533.74563377 1514.93548411 -536.6426044 1514.93000439 -539.53959465 1514.92275429 C-540.93069168 1514.919568 -542.32179205 1514.9176003 -543.71289253 1514.91686058 C-545.65439167 1514.91469752 -547.5958784 1514.90516107 -549.53735352 1514.89526367 C-551.19590111 1514.88954597 -551.19590111 1514.88954597 -552.88795471 1514.88371277 C-555.5 1514.75 -555.5 1514.75 -557.5 1513.75 C-557.55146685 1437.92148323 -557.59915859 1362.09296436 -557.62702942 1286.26443481 C-557.62744359 1285.14048121 -557.62785776 1284.01652761 -557.62828448 1282.85851481 C-557.63726515 1258.42650476 -557.64557542 1233.99449453 -557.65319599 1209.56248402 C-557.65693769 1197.57941639 -557.6608274 1185.59634881 -557.66479492 1173.61328125 C-557.6651872 1172.4208811 -557.66557948 1171.22848094 -557.66598364 1169.99994745 C-557.67874643 1131.41560265 -557.70126441 1092.8312711 -557.72889166 1054.24693432 C-557.75725244 1014.56567483 -557.7756709 974.88442266 -557.78174497 935.20315321 C-557.78260932 929.58647636 -557.78358622 923.96979953 -557.78463173 918.35312271 C-557.784834 917.24778125 -557.78503627 916.14243979 -557.78524467 915.00360313 C-557.78877698 897.27731974 -557.80265629 879.55105913 -557.8204961 861.82478499 C-557.83824763 843.96353522 -557.84488163 826.10230783 -557.84050413 808.24104957 C-557.83823851 797.6555366 -557.84415958 787.07010613 -557.86239263 776.4846082 C-557.87378316 769.38010546 -557.87389405 762.27565568 -557.86549544 755.17114904 C-557.86103873 751.1445007 -557.86085106 747.11800639 -557.87464955 743.09137569 C-557.97137369 713.09524486 -556.18248663 683.14435614 -551.875 653.4375 C-551.75227722 652.57008179 -551.62955444 651.70266357 -551.50311279 650.80895996 C-548.71949439 631.31269443 -544.63097964 612.14790182 -540.03912354 593.00549316 C-539.53290259 590.88765223 -539.0351066 588.76804621 -538.54052734 586.64746094 C-523.68829135 523.49938029 -498.78956904 460.99463417 -466.2890625 404.86328125 C-464.68772515 402.07667456 -463.14480907 399.26909958 -461.625 396.4375 C-451.6422528 378.05104605 -440.74222091 359.90612737 -428.65625 342.828125 C-426.72819551 340.07575736 -424.8706302 337.2925055 -423.03027344 334.48168945 C-411.42170316 316.78257618 -398.38811083 300.06028521 -384.9453125 283.7265625 C-382.51847059 280.77248336 -380.10524137 277.80782338 -377.69604492 274.83935547 C-376.57213539 273.45481282 -375.44730891 272.07101397 -374.3215332 270.68798828 C-371.77895773 267.5639202 -369.24390785 264.43505736 -366.73828125 261.28125 C-365.93777344 260.2809375 -365.13726563 259.280625 -364.3125 258.25 C-363.61769531 257.3734375 -362.92289063 256.496875 -362.20703125 255.59375 C-361.64371094 254.9853125 -361.08039063 254.376875 -360.5 253.75 C-359.84 253.75 -359.18 253.75 -358.5 253.75 C-358.25636719 253.18796875 -358.01273438 252.6259375 -357.76171875 252.046875 C-356.25819064 249.30980215 -354.43300252 247.29204059 -352.3125 245 C-349.45634487 241.88793337 -346.62859425 238.76566066 -343.875 235.5625 C-341.15909013 232.43982944 -338.29850931 229.52306454 -335.34449768 226.62693787 C-333.5553378 224.80631106 -331.88972536 222.92736554 -330.23022461 220.98852539 C-326.74123223 216.97748209 -323.08057746 213.18541284 -319.31640625 209.43359375 C-318.65720688 208.77343765 -317.99800751 208.11328156 -317.3188324 207.43312073 C-315.93603165 206.04964494 -314.55198924 204.66740917 -313.16674805 203.28637695 C-311.06769657 201.19268331 -308.9740406 199.09370126 -306.88085938 196.99414062 C-305.52636214 195.64030429 -304.17155469 194.28677825 -302.81640625 192.93359375 C-302.20156876 192.31673203 -301.58673126 191.6998703 -300.95326233 191.0643158 C-297.20830441 187.33911653 -293.34778566 183.80550011 -289.33457947 180.37049866 C-287.47815359 178.7307029 -285.73369509 177.01834129 -284 175.25 C-281.03264677 172.23586418 -277.92654708 169.45082667 -274.72265625 166.69140625 C-272.17023117 164.46195939 -269.68112486 162.16998618 -267.1875 159.875 C-262.64475315 155.72754742 -257.95880038 151.81767305 -253.171875 147.95703125 C-250.6014095 145.83376662 -248.14080637 143.63188151 -245.6875 141.375 C-240.71797891 136.85226551 -235.48892712 132.73635969 -230.18359375 128.62109375 C-227.15566205 126.27154675 -224.16745413 123.87721009 -221.18847656 121.46606445 C-212.26950945 114.25572553 -203.10411634 107.39076938 -193.90429688 100.54443359 C-191.68504196 98.88810504 -189.47341423 97.22234817 -187.265625 95.55078125 C-154.92259465 71.07080125 -120.55929532 49.29460169 -85.50634766 28.92089844 C-83.3572167 27.6666721 -81.21511394 26.40104247 -79.07421875 25.1328125 C-78.32986572 24.69243652 -77.5855127 24.25206055 -76.81860352 23.79833984 C-75.42644666 22.97435652 -74.03493031 22.14928928 -72.64428711 21.32275391 C-62.1085804 15.10136828 -51.2532338 9.54623047 -40.30859375 4.08911133 C-37.97504324 2.92505065 -35.64369687 1.75665645 -33.3125 0.58789062 C-31.82304508 -0.15650699 -30.33346633 -0.90065692 -28.84375 -1.64453125 C-28.15003296 -1.99240189 -27.45631592 -2.34027252 -26.74157715 -2.69868469 C-16.07547067 -8.00567389 -10.1944458 -5.01390669 0 0 Z " fill="#35482A" transform="translate(990.5,188.25)"/>
<path d="M0 0 C1.76654077 -0.0032334 3.5330813 -0.0065988 5.29962158 -0.01008606 C8.98718888 -0.01602332 12.67473296 -0.01793208 16.36230469 -0.01733398 C20.05376168 -0.01725355 23.74509238 -0.02407272 27.43652344 -0.0378418 C62.65761567 -0.16680569 97.54009972 1.21223354 132.578125 4.91796875 C134.44940567 5.11205322 134.44940567 5.11205322 136.35848999 5.31005859 C205.59802556 12.51728649 289.87340563 21.43446628 347.203125 64.16796875 C348.22921875 64.91820312 349.2553125 65.6684375 350.3125 66.44140625 C360.26665581 74.10879654 366.25429187 83.32146936 370.203125 95.16796875 C371.24260275 105.25601511 368.99931615 113.80056384 362.890625 121.91796875 C361.68047197 123.35091145 360.4521834 124.76880891 359.203125 126.16796875 C358.48769531 127.02261719 358.48769531 127.02261719 357.7578125 127.89453125 C323.64203248 165.58264425 253.10043761 177.93254513 205.33642578 185.65478516 C202.38963524 186.13742141 199.45066451 186.65163177 196.51171875 187.1796875 C166.74813896 192.4652216 136.59481442 195.93659897 106.44274902 198.01367188 C104.9560557 198.11609627 103.46948032 198.22024804 101.98303223 198.32617188 C51.84402471 201.88614304 0.56907851 201.84011011 -49.57080078 198.32293701 C-51.80074272 198.1676995 -54.03110931 198.02079035 -56.26171875 197.87548828 C-127.03070443 193.19298233 -206.55127528 184.39359954 -270.796875 152.16796875 C-271.51182129 151.81524902 -272.22676758 151.4625293 -272.96337891 151.09912109 C-282.81642579 146.20390802 -291.98709435 140.77215338 -300.796875 134.16796875 C-301.48136719 133.6575 -302.16585937 133.14703125 -302.87109375 132.62109375 C-311.90019847 125.39780998 -318.71660516 116.03363159 -320.13671875 104.37890625 C-320.60113983 91.1893475 -315.18145992 82.36785138 -306.625 72.71875 C-301.52207134 67.3896277 -295.99204446 63.1491905 -289.796875 59.16796875 C-289.09820313 58.70132812 -288.39953125 58.2346875 -287.6796875 57.75390625 C-217.37030974 12.96608198 -117.66281984 6.44096004 -36.796875 1.16796875 C-36.10764702 1.12259539 -35.41841904 1.07722202 -34.70830536 1.03047371 C-23.13102157 0.28311993 -11.59965403 0.00514431 0 0 Z " fill="#35482A" transform="translate(948.796875,1306.83203125)"/>
<path d="M0 0 C1.96826755 0.27013547 3.92525023 0.62242735 5.875 1.00390625 C7.14794922 1.2469751 8.42089844 1.49004395 9.73242188 1.74047852 C10.42392334 1.87414825 11.1154248 2.00781799 11.82788086 2.14553833 C98.86414097 18.85308613 188.32718076 23.05105568 279 17 C280.08314484 16.9271579 280.08314484 16.9271579 281.18817139 16.85284424 C312.54726483 14.7070845 343.79078514 10.22891197 374.8125 5.25 C376.05016113 5.05164551 377.28782227 4.85329102 378.56298828 4.64892578 C383.27632438 3.87058281 387.90699615 3.07733262 392.51171875 1.796875 C395.97978839 1.00461721 397.6345254 1.18914638 401 2 C401.04558934 31.0118006 401.08100081 60.02359772 401.10213066 89.03542697 C401.10463218 92.45770007 401.10722082 95.8799731 401.10986328 99.30224609 C401.11065021 100.32424941 401.11065021 100.32424941 401.11145304 101.36689927 C401.12016432 112.41038634 401.13593825 123.45385268 401.15430559 134.49732743 C401.17298457 145.82232104 401.18396269 157.14729925 401.18817699 168.47230923 C401.19079101 174.83618337 401.19696148 181.2000104 401.21146011 187.56386948 C401.22498236 193.54734913 401.22923355 199.53076204 401.22621536 205.51425552 C401.22676794 207.7161724 401.23077713 209.9180914 401.23841095 212.11999512 C401.24828843 215.1146566 401.24599538 218.10906247 401.24050903 221.10372925 C401.24924756 222.42569504 401.24924756 222.42569504 401.25816262 223.77436721 C401.22824242 229.77175758 401.22824242 229.77175758 399 232 C397.17947388 232.64224243 397.17947388 232.64224243 394.93798828 233.20166016 C394.09205109 233.41621353 393.24611389 233.63076691 392.37454224 233.8518219 C391.44914642 234.0786113 390.52375061 234.3054007 389.5703125 234.5390625 C388.12191483 234.9021476 388.12191483 234.9021476 386.64425659 235.27256775 C383.47306608 236.06456739 380.2992491 236.84535623 377.125 237.625 C374.93879369 238.16655139 372.75259582 238.70813688 370.56640625 239.24975586 C357.40940918 242.49528207 344.22967816 245.62695803 331 248.5625 C330.2921637 248.7199469 329.58432739 248.8773938 328.8550415 249.03961182 C245.34598414 267.53322979 158.12646205 267.41614628 71 249 C69.92524414 248.77231934 68.85048828 248.54463867 67.74316406 248.31005859 C53.5234958 245.26235537 39.47527705 241.59704809 25.4375 237.8125 C24.63423279 237.59621948 23.83096558 237.37993896 23.00335693 237.15710449 C14.93044006 234.97684733 6.89332236 232.77577316 -1 230 C-1.88828943 225.43432014 -2.12565403 221.11434843 -2.12698364 216.46617126 C-2.12854363 215.72760991 -2.13010362 214.98904856 -2.13171089 214.22810656 C-2.13568666 211.7626462 -2.13254409 209.29724788 -2.12939453 206.83178711 C-2.13075045 205.05844588 -2.13253146 203.28510494 -2.13470459 201.51176453 C-2.13926651 196.69160039 -2.13749171 191.87145765 -2.1343255 187.05129313 C-2.13178331 181.97035717 -2.13414574 176.88942298 -2.13571167 171.80848694 C-2.13753308 163.24300817 -2.13513316 154.67753801 -2.13037109 146.11206055 C-2.12498237 136.30834178 -2.12665144 126.50464399 -2.1321975 116.70092577 C-2.13679459 108.22640939 -2.13734594 99.75189919 -2.13475883 91.27738196 C-2.13322476 86.24327191 -2.13291984 81.20917155 -2.13629532 76.17506218 C-2.14769829 56.38011177 -2.06046793 36.59621542 -1.55419922 16.80688477 C-1.5347872 15.999722 -1.51537518 15.19255924 -1.49537492 14.360937 C-1.43990585 12.1208778 -1.37733993 9.88115532 -1.31173706 7.64137268 C-1.27592466 6.3771325 -1.24011227 5.11289232 -1.20321465 3.81034184 C-1 1 -1 1 0 0 Z " fill="#35482A" transform="translate(773,1524)"/>
<path d="M0 0 C0.99233643 0.31324219 1.98467285 0.62648438 3.00708008 0.94921875 C6.15607098 1.94985578 9.29742855 2.97174058 12.4375 4 C13.96358887 4.49693359 13.96358887 4.49693359 15.52050781 5.00390625 C21.54048088 6.97008381 27.54508986 8.97836093 33.54052734 11.01806641 C36.39450571 11.98542702 39.25346942 12.93676559 42.11328125 13.88671875 C43.88828965 14.48618381 45.66304229 15.08640683 47.4375 15.6875 C48.6289563 16.07905273 48.6289563 16.07905273 49.84448242 16.47851562 C57.93298005 19.256366 64.44549782 22.95246751 69.4375 30 C74.58375772 40.94002052 70.55220964 55.61983209 69.0625 67.1875 C68.80018576 69.26561081 68.53865918 71.34382116 68.27783203 73.42211914 C67.84125351 76.89922009 67.4039253 80.37621593 66.96395874 83.85289001 C65.70862471 93.78326722 64.48920335 103.71781035 63.27902603 113.6537838 C62.62163577 119.04832291 61.96173638 124.44255583 61.3020916 129.83681965 C60.75705526 134.29502563 60.21309841 138.75335727 59.67169189 143.21200562 C57.35074994 162.31195428 54.86592075 181.34876952 51.85040283 200.35391235 C44.74399898 245.89529882 47.27676585 291.50704557 49.8474369 337.33867264 C50.41430723 347.46123207 50.93929886 357.58575865 51.45703125 367.7109375 C51.54438336 369.41589965 51.63175522 371.12086079 51.71914673 372.82582092 C51.85028099 375.38472339 51.98139649 377.9436268 52.11244011 380.50253391 C52.56226173 389.28442816 53.01451588 398.06619174 53.47265625 406.84765625 C53.51184174 407.59915388 53.55102722 408.35065151 53.59140015 409.1249218 C54.27178597 422.13965393 55.00401863 435.1511797 55.77003479 448.16114807 C56.89800999 467.43379822 57.64915878 486.69201534 57.4375 506 C52.52142389 506.87834144 47.60461501 507.75249845 42.6875 508.625 C41.9238916 508.76071411 41.1602832 508.89642822 40.37353516 509.03625488 C31.89835506 510.5406389 23.42136363 512.02167289 14.921875 513.3828125 C-19.80456936 518.95899419 -54.37418538 525.72952178 -88.5625 534 C-93.88979539 535.28137868 -99.21922266 536.55364783 -104.55004883 537.82025146 C-106.82171651 538.36228621 -109.0915565 538.91151394 -111.36132812 539.46142578 C-112.75774426 539.79488225 -114.15422556 540.12806597 -115.55078125 540.4609375 C-117.39990112 540.90638916 -117.39990112 540.90638916 -119.28637695 541.36083984 C-122.17146635 541.9237107 -124.63884333 542.21840901 -127.5625 542 C-129.65961184 539.90288816 -128.71474474 535.25311806 -128.71640015 532.35806274 C-128.7207824 531.44052574 -128.72516465 530.52298873 -128.7296797 529.57764757 C-128.74312026 526.47835812 -128.74925827 523.37909713 -128.75537109 520.27978516 C-128.76326782 518.0677833 -128.7715365 515.85578275 -128.78015137 513.64378357 C-128.80641763 506.35888915 -128.82168198 499.07398883 -128.8359375 491.7890625 C-128.84129498 489.28637055 -128.84667248 486.78367865 -128.85206985 484.28098679 C-128.87370389 473.87540789 -128.89259464 463.46982966 -128.90369225 453.06423378 C-128.90662211 450.36248393 -128.90958375 447.66073413 -128.91259766 444.95898438 C-128.91334371 444.28744848 -128.91408976 443.61591259 -128.91485842 442.92402713 C-128.9275186 432.03964031 -128.9607491 421.1554166 -129.00239949 410.27110608 C-129.04477764 399.10541639 -129.06797452 387.93978548 -129.07361281 376.77401006 C-129.07727635 370.50112488 -129.08940404 364.22851612 -129.12171555 357.95570755 C-129.15166165 352.05746119 -129.15815617 346.15966048 -129.14633179 340.26135445 C-129.14610993 338.09209474 -129.15450668 335.92281516 -129.17198563 333.75362587 C-129.19449312 330.8005067 -129.18646828 327.84902886 -129.17050171 324.89590454 C-129.1843838 324.02986182 -129.19826588 323.1638191 -129.21256864 322.27153265 C-129.18053246 319.88025856 -129.18053246 319.88025856 -128.5625 316 C-125.60577681 313.5259805 -122.56879497 312.52584561 -118.88671875 311.4921875 C-117.98896729 311.23276367 -117.09121582 310.97333984 -116.16625977 310.70605469 C-115.20389404 310.43180664 -114.24152832 310.15755859 -113.25 309.875 C-80.93645888 300.30708817 -47.96302152 287.55108508 -21.85546875 265.73828125 C-19.5625 264 -19.5625 264 -17.5625 264 C-17.5625 263.34 -17.5625 262.68 -17.5625 262 C-16.09375 260.625 -16.09375 260.625 -14.0625 259 C-0.59956418 247.48752485 8.2630613 230.585773 10.4375 213 C11.75230371 194.18187187 5.06756717 177.85646802 -6.69140625 163.37890625 C-19.54326602 148.6418005 -34.9408692 137.46414682 -52.53515625 129.078125 C-53.17807617 128.77003906 -53.82099609 128.46195313 -54.48339844 128.14453125 C-56.28008681 127.29488409 -58.0870756 126.4671197 -59.89453125 125.640625 C-62.5625 124 -62.5625 124 -63.33129883 122.30639648 C-63.6566249 119.06103705 -62.8392295 116.58806197 -61.9296875 113.45703125 C-61.74172104 112.79711182 -61.55375458 112.13719238 -61.36009216 111.45727539 C-60.94661425 110.00823069 -60.52882656 108.56041066 -60.10733032 107.11367798 C-58.93678698 103.09231844 -57.80005915 99.06138144 -56.66015625 95.03125 C-56.41337631 94.16143997 -56.16659637 93.29162994 -55.91233826 92.39546204 C-53.05981171 82.2995023 -50.38998253 72.15575794 -47.71807861 62.01080322 C-46.07136573 55.76383284 -44.41223017 49.52014995 -42.75543213 43.27584839 C-41.6273417 39.02259901 -40.50057898 34.76905556 -39.38427734 30.51269531 C-38.45828642 26.98365198 -37.51267406 23.46011651 -36.5625 19.9375 C-36.32055908 19.00075439 -36.07861816 18.06400879 -35.8293457 17.09887695 C-33.90437943 10.07091515 -31.27676825 4.11712924 -25.4375 -0.4375 C-16.87593385 -5.09052508 -8.81070829 -2.87446969 0 0 Z " fill="#35482A" transform="translate(1342.5625,1201)"/>
<path d="M0 0 C0.91845703 0.45246094 0.91845703 0.45246094 1.85546875 0.9140625 C8.98362804 6.23528321 10.49550696 12.84835939 12.66796875 21.15234375 C13.18329414 23.04735626 13.18329414 23.04735626 13.70903015 24.98065186 C14.63385008 28.38394625 15.53904151 31.79217033 16.4401474 35.20180893 C17.37573259 38.72904324 18.32909097 42.25147289 19.27978516 45.7746582 C24.65700756 65.74653735 29.88759118 85.75840006 34.89746094 105.82568359 C35.96464152 109.96513697 37.14970843 114.06358934 38.39892578 118.15161133 C38.86714194 120.6687569 38.81640583 122.02130221 37.8125 124.375 C36.29003906 125.67480469 36.29003906 125.67480469 34.328125 126.796875 C33.60431641 127.21904297 32.88050781 127.64121094 32.13476562 128.07617188 C31.36841797 128.50478516 30.60207031 128.93339844 29.8125 129.375 C28.70165039 130.01018555 28.70165039 130.01018555 27.56835938 130.65820312 C26.0355681 131.53201277 24.50042868 132.4017145 22.96313477 133.26757812 C0.01193034 146.24517363 -24.47784042 164.72183658 -32.0625 191.25 C-36.31983139 209.35018805 -34.07347356 227.42540131 -24.33203125 243.421875 C-22.38426102 246.17441257 -20.34435735 248.78358174 -18.1875 251.375 C-17.18783203 252.60089844 -17.18783203 252.60089844 -16.16796875 253.8515625 C-4.8124185 267.12428357 8.48354546 276.25073846 23.8125 284.375 C25.18607666 285.11000732 25.18607666 285.11000732 26.58740234 285.85986328 C47.59946981 297.01300129 69.37888143 305.37848945 92.20703125 312 C101.01008065 314.57258065 101.01008065 314.57258065 102.8125 316.375 C102.91045811 319.28280605 102.94241996 322.16686546 102.93275452 325.0750885 C102.93403615 326.46069439 102.93403615 326.46069439 102.93534368 327.87429231 C102.93700132 330.99442049 102.9314725 334.11449585 102.92602539 337.23461914 C102.92574355 339.4613393 102.92590118 341.68805956 102.9264679 343.91477966 C102.92675601 349.98065077 102.92085709 356.04650229 102.91389394 362.11236882 C102.90766266 368.44384364 102.90705678 374.77531885 102.90586853 381.10679626 C102.90310883 391.7405536 102.89685331 402.37430315 102.88793945 413.00805664 C102.87876604 423.96280888 102.87168486 434.91755915 102.86743164 445.87231445 C102.86716892 446.54711273 102.86690619 447.22191101 102.86663551 447.91715772 C102.86533051 451.30228717 102.86406679 454.68741664 102.86282361 458.07254612 C102.85245014 486.17336911 102.83475696 514.27418411 102.8125 542.375 C98.87132341 543.52545265 96.36940924 543.02274245 92.35546875 542.0390625 C91.39157227 541.80736359 91.39157227 541.80736359 90.40820312 541.57098389 C89.00816878 541.23337308 87.60914188 540.89156347 86.21102905 540.54608154 C83.96143006 539.99047397 81.70937854 539.44609453 79.45629883 538.90478516 C76.23838822 538.13147177 73.02131823 537.35479074 69.8046875 536.57617188 C23.27567894 525.34707396 -23.55986826 515.77675693 -70.92773438 508.82617188 C-72.70374023 508.56416992 -72.70374023 508.56416992 -74.515625 508.296875 C-75.58200195 508.1431543 -76.64837891 507.98943359 -77.74707031 507.83105469 C-80.1875 507.375 -80.1875 507.375 -81.1875 506.375 C-81.78981898 495.86342613 -80.8488096 485.24944921 -80.19140625 474.75973511 C-78.18788292 442.6014607 -76.63873597 410.41786787 -75.03564453 378.23779297 C-74.87492918 375.01280465 -74.7141943 371.78781731 -74.55342102 368.56283188 C-74.44769191 366.44157108 -74.34202963 364.32030695 -74.23643494 362.19903946 C-73.58647478 349.15185347 -72.91407865 336.10628951 -72.19921875 323.0625 C-69.37881812 271.48004707 -72.05328681 223.61307655 -79.25488281 172.47192383 C-81.12506981 159.1829382 -82.93075025 145.89786304 -84.4375 132.5625 C-85.53712093 122.83244111 -86.74311808 113.13175533 -88.125 103.4375 C-89.91524305 90.81285763 -91.45139555 78.16353379 -92.9375 65.5 C-93.05036346 64.54972931 -93.16322693 63.59945862 -93.2795105 62.62039185 C-93.60226488 59.89586527 -93.9192518 57.17073108 -94.234375 54.4453125 C-94.37937187 53.22679344 -94.37937187 53.22679344 -94.52729797 51.98365784 C-95.62072006 42.37141438 -95.67406332 34.66381702 -89.6875 26.6875 C-81.48276383 18.10078807 -66.95202511 15.51033783 -55.9375 12 C-54.14380745 11.42446174 -52.35018807 10.84869538 -50.55664062 10.27270508 C-46.21056107 8.8794632 -41.86146285 7.49591015 -37.51147461 6.1149292 C-35.41042355 5.44597653 -33.31116129 4.77185248 -31.21289062 4.09423828 C-28.04140388 3.07165194 -24.86585511 2.06349299 -21.6875 1.0625 C-20.81319336 0.77906738 -19.93888672 0.49563477 -19.03808594 0.20361328 C-12.74727011 -1.73791897 -6.15312766 -3.2274401 0 0 Z " fill="#35482A" transform="translate(629.1875,1199.625)"/>
<path d="M0 0 C2.80965511 0.09156876 5.61942883 0.1791599 8.42920685 0.26686192 C32.81381542 1.03014 32.81381542 1.03014 43.61468506 1.59210205 C44.848479 1.65574951 46.08227295 1.71939697 47.35345459 1.78497314 C53.44125567 2.45865052 58.22496782 4.44880102 62.41937256 8.94366455 C65.9310887 14.37086223 66.72509998 19.86324437 67.07952881 26.23272705 C67.11835678 26.89815018 67.15718475 27.5635733 67.19718933 28.24916077 C67.32114569 30.41779339 67.43310264 32.58684695 67.54437256 34.75616455 C67.62865394 36.28751546 67.71329455 37.81884663 67.79827881 39.35015869 C68.37242499 49.9269624 68.77447683 60.50595944 69.08538818 71.09381104 C69.28679814 77.57823998 69.57379429 84.04787802 69.98577881 90.52178955 C70.03137939 91.2405426 70.07697998 91.95929565 70.1239624 92.6998291 C70.21738619 94.16892631 70.31083116 95.63802216 70.40429688 97.1071167 C71.54582258 115.12979317 71.70520783 133.07708465 71.48187256 151.13116455 C67.39977747 152.49186292 63.75962932 151.76633955 59.56390381 151.29522705 C46.12386898 149.90676913 32.66119656 149.18529012 19.16937256 148.50616455 C17.87673492 148.44046265 16.58409729 148.37476074 15.25228882 148.30706787 C-6.25691697 147.23085423 -27.67985466 146.69463192 -49.21105957 147.09082031 C-51.55343808 147.13178204 -53.89580062 147.16405142 -56.23834229 147.19415283 C-77.96696731 147.4839943 -99.56659006 148.65506077 -121.22515869 150.41241455 C-121.93291946 150.46971237 -122.64068024 150.52701019 -123.36988831 150.58604431 C-127.78118702 150.95494195 -132.16056893 151.44327087 -136.54795837 152.03533936 C-138.51812744 152.13116455 -138.51812744 152.13116455 -141.51812744 151.13116455 C-141.64278108 139.25473294 -141.25792595 127.45229857 -140.67828369 115.59210205 C-140.59061206 113.73629547 -140.50333576 111.88047018 -140.41642761 110.02462769 C-140.1881601 105.16669606 -139.95581153 100.30896967 -139.72216797 95.45129395 C-139.35210895 87.75122583 -138.98681225 80.05093643 -138.62446213 72.35050201 C-138.49151758 69.54508862 -138.35559603 66.73983003 -138.2194519 63.93457031 C-137.8216832 55.61939719 -137.46824705 47.31102771 -137.30670166 38.98760986 C-137.29130939 38.28794161 -137.27591711 37.58827335 -137.2600584 36.86740303 C-137.19029855 33.68776249 -137.13704806 30.51016296 -137.12019348 27.32974243 C-136.96449483 19.40824111 -135.90374689 12.60828722 -130.20562744 6.75616455 C-124.55063536 3.33686701 -120.02951273 1.77089412 -113.41558838 1.51519775 C-112.40644882 1.47064957 -112.40644882 1.47064957 -111.37692261 1.42520142 C-109.16909294 1.33107353 -106.96108089 1.25624797 -104.75250244 1.1819458 C-103.19372324 1.12004732 -101.63498717 1.05705389 -100.07629395 0.99302673 C-96.80846143 0.86151446 -93.54046521 0.7387665 -90.27203369 0.62310791 C-86.13971176 0.47682746 -82.00814673 0.31584042 -77.87660027 0.14921665 C-51.84581421 -0.89913318 -26.03640622 -0.85802738 0 0 Z " fill="#35482A" transform="translate(1008.5181274414063,1127.8688354492188)"/>
<path d="M0 0 C12.54 0 25.08 0 38 0 C39.30707002 2.61414004 39.13961513 4.55083878 39.15821838 7.47952271 C39.17290161 9.22537659 39.17290161 9.22537659 39.18788147 11.00650024 C39.19363693 12.28971161 39.1993924 13.57292297 39.20532227 14.89501953 C39.21489864 16.2549062 39.22490858 17.61478988 39.23532104 18.97467041 C39.26240227 22.67276204 39.28339437 26.37086647 39.30332303 30.06900263 C39.32516277 33.9314321 39.35256129 37.79382195 39.37937927 41.65621948 C39.42933342 48.97307007 39.47426213 56.28994261 39.51740164 63.6068362 C39.56675078 71.93564986 39.62167751 80.26442378 39.67708123 88.59319901 C39.79094305 105.72876263 39.89777292 122.86436311 40 140 C42.41206857 141.20603429 43.94250206 141.13519211 46.6375885 141.15148926 C48.10360756 141.16400475 48.10360756 141.16400475 49.59924316 141.17677307 C50.67516724 141.18095749 51.75109131 141.18514191 52.85961914 141.18945312 C53.98971909 141.19774643 55.11981903 141.20603973 56.28416443 141.21458435 C58.74396917 141.23201345 61.20379077 141.24717237 63.6636219 141.26036072 C67.54967289 141.28132833 71.43563882 141.30835477 75.32164001 141.33703613 C84.27082402 141.40190516 93.2200566 141.45770289 102.16930389 141.51302338 C111.02287175 141.56785267 119.8763896 141.62650273 128.72988701 141.69187927 C132.57056717 141.7185618 136.41125134 141.7393102 140.25196838 141.7598877 C142.59123947 141.77648228 144.93050863 141.79335337 147.26977539 141.81054688 C148.88669785 141.8168235 148.88669785 141.8168235 150.5362854 141.82322693 C151.51081161 141.83157059 152.48533783 141.83991425 153.48939514 141.84851074 C154.76725183 141.85624134 154.76725183 141.85624134 156.07092381 141.86412811 C158 142 158 142 159 143 C159.08868299 145.95705321 159.11520296 148.89065056 159.09765625 151.84765625 C159.09553383 153.17729652 159.09553383 153.17729652 159.09336853 154.53379822 C159.08775215 157.37673254 159.07519691 160.21958931 159.0625 163.0625 C159.05748711 164.98502491 159.05292384 166.90755104 159.04882812 168.83007812 C159.03777741 173.55341549 159.02050183 178.27669458 159 183 C158.39885691 183.00423194 157.79771381 183.00846388 157.17835426 183.01282406 C142.56516095 183.11603583 127.95201483 183.22465928 113.33890724 183.33933926 C106.27217906 183.39466603 99.20544582 183.44814713 92.13867188 183.49731445 C85.32409187 183.54473227 78.50956665 183.59725214 71.69504929 183.65294075 C69.08984025 183.67338564 66.48461702 183.69209512 63.87938309 183.70907402 C60.24196469 183.73307082 56.60464479 183.76313182 52.96728516 183.79467773 C51.33701637 183.80331093 51.33701637 183.80331093 49.67381287 183.81211853 C48.19300484 183.82680176 48.19300484 183.82680176 46.68228149 183.84178162 C45.82132685 183.84823417 44.9603722 183.85468672 44.07332802 183.8613348 C41.93791668 183.86998735 41.93791668 183.86998735 40 185 C39.99826375 185.57728 39.9965275 186.15455999 39.99473864 186.74933332 C39.89181603 220.92780656 39.78372647 255.10625922 39.66888306 289.28469446 C39.6551127 293.3842135 39.64138572 297.48373268 39.62768555 301.58325195 C39.62495724 302.39942748 39.62222894 303.215603 39.61941796 304.05651111 C39.57528615 317.28957405 39.53467213 330.52264559 39.49534739 343.75572359 C39.45494923 357.32380051 39.41079572 370.89186142 39.36312145 384.45991474 C39.3337992 392.83898294 39.30744195 401.21804987 39.28482103 409.59713889 C39.26905046 415.33505692 39.24964783 421.07295534 39.22733159 426.81085163 C39.21454581 430.12633703 39.20395287 433.44180457 39.19658089 436.75730705 C39.18835665 440.34344201 39.17409065 443.92950172 39.15821838 447.51560974 C39.15724028 448.57492578 39.15626217 449.63424183 39.15525442 450.72565836 C39.14977998 451.6786164 39.14430554 452.63157444 39.1386652 453.61341 C39.13600716 454.44233948 39.13334911 455.27126896 39.13061053 456.12531751 C39 458 39 458 38 459 C35.20006403 459.10103255 32.42531356 459.13970088 29.625 459.1328125 C28.78533691 459.13376923 27.94567383 459.13472595 27.08056641 459.13571167 C25.30175705 459.13639348 23.52294523 459.13453917 21.74414062 459.13037109 C19.01166224 459.12502283 16.27934824 459.13031605 13.546875 459.13671875 C11.8229163 459.13605797 10.09895771 459.13477681 8.375 459.1328125 C7.55209473 459.13483673 6.72918945 459.13686096 5.88134766 459.13894653 C0.11495054 459.11495054 0.11495054 459.11495054 -1 458 C-1.09986932 456.54762493 -1.13030062 455.090416 -1.13307858 453.63461399 C-1.13731962 452.68637274 -1.14156067 451.7381315 -1.14593023 450.76115566 C-1.14535103 449.18006438 -1.14535103 449.18006438 -1.14476013 447.56703186 C-1.14828698 446.45686233 -1.15181382 445.34669279 -1.15544754 444.20288175 C-1.16619345 440.45173804 -1.16982567 436.70061965 -1.17358398 432.94946289 C-1.17988463 430.27278927 -1.18659058 427.59611974 -1.19384766 424.91944885 C-1.20880759 419.14033911 -1.22034244 413.36123069 -1.22979546 407.58210945 C-1.24364528 399.22419249 -1.26482932 390.86630599 -1.28822399 382.50841086 C-1.32616936 368.94677654 -1.3611292 355.3851367 -1.39282227 341.82348633 C-1.39472276 341.01112923 -1.39662325 340.19877214 -1.39858133 339.36179816 C-1.4254195 327.8304212 -1.44929045 316.29903998 -1.47196633 304.76765417 C-1.47436229 303.54957332 -1.47436229 303.54957332 -1.47680664 302.30688477 C-1.47840011 301.4958155 -1.47999357 300.68474623 -1.48163532 299.84909911 C-1.50837315 286.34086711 -1.54275999 272.83266755 -1.58346039 259.32447046 C-1.60827932 250.98448554 -1.62658138 242.64453558 -1.636616 234.30451953 C-1.64398954 228.59275583 -1.65848912 222.88103902 -1.67868023 217.16930635 C-1.69010686 213.86986955 -1.69712289 210.57052381 -1.69767189 207.27106476 C-1.69874617 203.70059674 -1.71191936 200.13037761 -1.72825623 196.55995178 C-1.72563937 195.50812165 -1.72302252 194.45629151 -1.72032636 193.37258774 C-1.72717516 192.42173875 -1.73402395 191.47088975 -1.74108028 190.49122715 C-1.74281653 189.66625722 -1.74455278 188.8412873 -1.74634165 187.99131829 C-1.82299175 185.76894953 -1.82299175 185.76894953 -4 184 C-6.13680115 183.68898298 -6.13680115 183.68898298 -8.6375885 183.72825623 C-10.10360756 183.71367874 -10.10360756 183.71367874 -11.59924316 183.69880676 C-12.67516724 183.69821762 -13.75109131 183.69762848 -14.85961914 183.69702148 C-15.98971909 183.68858215 -17.11981903 183.68014282 -18.28416443 183.67144775 C-22.03449908 183.64557341 -25.78475497 183.63350825 -29.53515625 183.62109375 C-32.13065728 183.60493098 -34.72615217 183.5877523 -37.32164001 183.56959534 C-43.46503245 183.52849762 -49.60841446 183.49551802 -55.75187725 183.46712118 C-67.41128915 183.41314326 -79.0705987 183.34514024 -90.72988701 183.26918221 C-94.57057268 183.24625542 -98.41124676 183.23004467 -102.25196838 183.21446228 C-104.59123869 183.20106164 -106.93050778 183.18744736 -109.26977539 183.17358398 C-110.34772369 183.17097061 -111.425672 183.16835724 -112.5362854 183.16566467 C-113.51081161 183.15876617 -114.48533783 183.15186768 -115.48939514 183.14476013 C-116.3412996 183.14090522 -117.19320406 183.1370503 -118.07092381 183.13307858 C-120 183 -120 183 -121 182 C-121.08865208 179.1156618 -121.11521296 176.25537842 -121.09765625 173.37109375 C-121.0962413 172.50686295 -121.09482635 171.64263214 -121.09336853 170.75221252 C-121.08775239 167.98060708 -121.07519719 165.2090812 -121.0625 162.4375 C-121.05748708 160.5631522 -121.05292381 158.68880315 -121.04882812 156.81445312 C-121.03777772 152.20960456 -121.0205023 147.60481579 -121 143 C-117.63743394 142.24813595 -114.5139786 141.86835485 -111.07084656 141.84178162 C-110.10475967 141.8319928 -109.13867279 141.82220398 -108.14331055 141.81211853 C-106.57129883 141.80348534 -106.57129883 141.80348534 -104.9675293 141.79467773 C-103.85489212 141.78477814 -102.74225494 141.77487854 -101.59590149 141.76467896 C-97.92202881 141.73311756 -94.24814321 141.7083276 -90.57421875 141.68359375 C-88.02545335 141.66301961 -85.47669132 141.64202301 -82.92793274 141.62062073 C-76.90740646 141.57108549 -70.88686275 141.52580786 -64.86628896 141.48259836 C-58.01016618 141.43315416 -51.15409039 141.37826275 -44.29801309 141.32291877 C-30.19871927 141.20922751 -16.09938031 141.10236066 -2 141 C-1.99576806 140.2854748 -1.99153612 139.57094959 -1.98717594 138.83477211 C-1.88397705 121.46766849 -1.77535559 104.10060733 -1.66066074 86.73357582 C-1.6053272 78.33509347 -1.55184499 69.93660688 -1.50268555 61.53808594 C-1.45984531 54.21995 -1.41356773 46.90184536 -1.36312145 39.58375776 C-1.33651921 35.70707962 -1.31166611 31.83040769 -1.29092598 27.95369339 C-1.2713663 24.30776335 -1.24722456 20.66189289 -1.21950912 17.01601601 C-1.20565227 15.03401825 -1.19670695 13.05198809 -1.18788147 11.06996155 C-1.17809265 9.89764481 -1.16830383 8.72532806 -1.15821838 7.51748657 C-1.15176583 6.49429636 -1.14531328 5.47110615 -1.1386652 4.41691017 C-1 2 -1 2 0 0 Z " fill="#C09D5F" transform="translate(955,572)"/>
</svg>
